<svg width="27" height="27" viewBox="0 0 27 27" fill="none" xmlns="http://www.w3.org/2000/svg">
  <rect width="27" height="27" fill="#F9F7F9"/>
  <path fill-rule="evenodd" clip-rule="evenodd" d="M21.6 20.25C21.6 21.7412 20.3912 22.95 18.9 22.95L8.09999 22.95C6.60883 22.95 5.39999 21.7412 5.39999 20.25L5.4 6.75C5.4 5.25883 6.60883 4.05 8.1 4.05L16.7592 4.05L21.6 8.89081L21.6 20.25ZM18.9 20.25L18.9 10.8L14.85 10.8L14.85 6.75L8.1 6.75L8.09999 20.25L18.9 20.25Z" fill="#4F4F4F"/>
  <path fill-rule="evenodd" clip-rule="evenodd" d="M16.2 14.85L9.45 14.85L9.45 12.15L16.2 12.15L16.2 14.85Z" fill="#4F4F4F"/>
  <path fill-rule="evenodd" clip-rule="evenodd" d="M17.55 18.9H9.45V16.2L17.55 16.2V18.9Z" fill="#4F4F4F"/>
</svg>